<svg width="24" height="18" viewBox="0 0 24 18" fill="none" xmlns="http://www.w3.org/2000/svg">
  <!-- Belarus flag: Red top, Green bottom with white ornament -->
  <rect width="24" height="12" fill="#CE1126"/>
  <rect y="12" width="24" height="6" fill="#007A3D"/>
  
  <!-- White ornament pattern on left -->
  <rect x="0" y="0" width="3" height="18" fill="white"/>
  
  <!-- Red ornament pattern -->
  <rect x="0.3" y="1" width="0.4" height="1" fill="#CE1126"/>
  <rect x="1.3" y="1" width="0.4" height="1" fill="#CE1126"/>
  <rect x="0.3" y="3" width="0.4" height="1" fill="#CE1126"/>
  <rect x="1.3" y="3" width="0.4" height="1" fill="#CE1126"/>
  <rect x="0.3" y="5" width="0.4" height="1" fill="#CE1126"/>
  <rect x="1.3" y="5" width="0.4" height="1" fill="#CE1126"/>
  <rect x="0.3" y="7" width="0.4" height="1" fill="#CE1126"/>
  <rect x="1.3" y="7" width="0.4" height="1" fill="#CE1126"/>
  <rect x="0.3" y="9" width="0.4" height="1" fill="#CE1126"/>
  <rect x="1.3" y="9" width="0.4" height="1" fill="#CE1126"/>
  <rect x="0.3" y="11" width="0.4" height="1" fill="#CE1126"/>
  <rect x="1.3" y="11" width="0.4" height="1" fill="#CE1126"/>
  
  <!-- Green ornament pattern -->
  <rect x="0.3" y="13" width="0.4" height="1" fill="#007A3D"/>
  <rect x="1.3" y="13" width="0.4" height="1" fill="#007A3D"/>
  <rect x="0.3" y="15" width="0.4" height="1" fill="#007A3D"/>
  <rect x="1.3" y="15" width="0.4" height="1" fill="#007A3D"/>
  <rect x="0.3" y="17" width="0.4" height="1" fill="#007A3D"/>
  <rect x="1.3" y="17" width="0.4" height="1" fill="#007A3D"/>
</svg>